Patient4_TMGait_0pt3_01_left_15_EMG.mot
version=1
nRows=33
nColumns=33
inDegrees=no
endheader
time	1LAddLong	2LGlutMax	3LGlutMed	4LIliopsoas	5LSemiMemb	6LBicFemLong	7LRecFem	8LVastMed	9LVastLat	10LGasMed	11LTibAnt	12lTibPost	13LPeroneusLong	14LSol	15LExtDigLong	16LFlexDigLong	17RAddLong	18RGlutMax	19RGlutMed	20RIliopsoas	21RSemiMemb	22RBicFemLong	23RRecFem	24RVastMed	25RVastLat	26RGasMed	27RTibAnt	28RTibPost	29RPeroneusLong	30RSol	31RExtDigLong	32RFlexDigLong
29.095	-0.007935	-0.083466	-0.010223	0.009155	0.033112	-0.16983	0.008087	0.01297	0.03067	-0.022736	-0.029907	-0.000305	0.036926	-0.052032	-0.24811	-0.010376	-0.012665	0.006104	0.17395	-0.084686	0.21088	0.032959	-0.066376	-0.21286	-0.2803	-0.013885	-0.024261	-0.002441	-0.033569	-0.10651	0.00351	-0.01358
29.096	0	-0.063477	-0.046692	0.001678	-0.019226	-0.019073	0.018463	0.00351	0.080719	-0.083313	-0.13092	0.001831	0.42007	0.00351	-0.20004	0.000305	-0.003357	0.000458	0.06485	-0.071411	0.20859	0.022125	-0.11734	-0.29297	-0.36102	-0.012054	-0.02594	-0.006256	0.026398	-0.088806	0.002441	-0.011902
29.097	0.003815	-0.037079	-0.075531	-0.00351	-0.055542	-0.003357	0.023193	-0.005646	0.11627	-0.098419	-0.093079	-0.009918	0.091705	0.001068	-0.17502	-0.011292	0.004883	0.023193	0.028992	0.046234	0.23865	0.03067	0.04303	-0.28854	-0.52628	-0.002441	-0.024872	-0.00351	0.087433	-0.14465	0.002289	-0.011139
29.098	-0.005035	-0.019989	-0.080872	0.005951	-0.071869	0.11337	0.056763	-0.002441	0.058594	-0.10956	0.00412	-0.01297	0.19257	0.027313	-0.080261	-0.001068	0.006866	0.009766	0.063171	0.13626	0.24231	0.004425	0.011597	-0.39581	-0.63232	-0.004578	0.21118	-0.005493	0.077209	-0.1384	0.002289	-0.002441
29.099	-0.002899	0.012817	0.045319	0.015106	0.007629	0.11749	0.083313	-0.007324	0.019684	-0.10742	0.021973	-0.009613	-0.042725	0.10391	0.2182	0.010529	0.007629	0.013123	0.017548	0.1355	0.22415	0.013123	-0.017242	-0.31876	-0.58731	-0.002136	-0.025787	0.000763	0.078735	-0.11185	0.008698	-0.014801
29.1	0.001068	-0.004425	0.077515	0.005341	0.036163	-0.016022	0.084381	-0.00473	0.058746	-0.094299	-0.027008	-0.009308	-0.15747	-0.018463	0.055542	0.000916	0.012054	0.039825	0.048523	0.064087	0.17929	-0.010071	0.096741	-0.20264	-0.38696	-0.003357	-0.10407	-0.00351	-0.004425	0.002899	0.004425	-0.01297
29.101	0.008087	-0.020142	0.011444	0.012665	0.056152	-0.12314	0.09552	-0.010986	0.045319	-0.078735	0.023956	-0.011292	-0.034485	-0.06897	0.031128	-0.005035	0.019989	-0.025787	0.037384	0.063019	0.0737	-0.040741	0.28931	-0.17517	-0.18845	-0.002899	-0.01297	-0.007324	0.016785	0.16647	0.006256	-0.021362
29.102	0.009918	-0.037079	-0.036469	0.004578	0.091248	-0.080872	0.11963	0.00412	0.010529	0.010986	0.061035	-0.008087	-0.027771	-0.1207	0.12421	0.005341	0.027313	-0.030365	0.017242	0.041656	0.11017	-0.057068	0.097351	-0.16815	-0.099792	0.003052	-0.54977	0.000458	0.15747	0.0914	0.00412	-0.016174
29.103	0.002594	-0.060883	-0.093231	0.005188	0.041962	-0.021515	0.15182	0.005341	-0.003052	-0.000305	0.007172	-0.014801	0.030365	-0.18784	0.20187	-0.00824	0.016174	-0.019531	-0.002289	-0.018768	0.12695	-0.023651	-0.088806	-0.054779	-0.11581	-0.00061	-1.4059	0.00061	0.29923	0.021362	0.00824	-0.009155
29.104	0.00824	-0.076447	-0.14374	0.001068	0.066528	0.004425	0.090942	0.008698	0.008392	-0.033875	-0.059052	-0.012817	0.05249	-0.17334	0.1326	-0.002594	0.030212	0.010986	-0.024567	-0.037537	0.076752	0.019836	-0.099792	-0.061035	0.038605	0.004578	-0.89233	-0.001068	0.28458	-0.073547	0.007324	-0.014648
29.105	0.014191	-0.055389	-0.099487	-0.000916	0.018311	0.042114	0.058594	0.006561	-0.007782	0.005188	0.096283	0.002899	-0.063934	-0.10483	0.15152	-0.007019	0.029449	-0.018616	-0.04837	-0.029297	0.050507	0.011749	-0.14923	-0.22842	0.055084	-0.000763	-0.63812	0.002747	0.10635	-0.039063	0.006714	-0.015411
29.106	0.010223	-0.095215	-0.086517	0.002136	0.022583	0.020752	0.013885	0.020142	-0.02533	-0.004425	0.11185	-0.011292	-0.057983	-0.023193	0.13336	-0.000916	0.026245	0.006104	-0.054626	-0.034943	0.043182	0.028687	-0.24704	-0.10391	0.17303	-0.002899	-0.42252	0.005341	0.095062	0.052185	0.009155	-0.008698
29.107	0	-0.081635	-0.093079	0.007019	-0.031281	0.048218	-0.033417	0.011902	0.047607	-0.023956	0.032654	-0.017242	-0.15579	0.000763	0.04303	0.002747	0.017395	0.017242	-0.076904	-0.013428	0.057526	0.086212	-0.26566	0.16296	0.23239	0.003662	-0.18097	-0.001373	0.12528	0.15533	0.013428	-0.014801
29.108	0.011292	-0.046844	-0.061493	0.002594	-0.045166	0.10071	-0.13153	-0.004425	0.12085	-0.019836	-0.038147	-0.010223	-0.045929	-0.089722	0.032654	-0.009003	0.009613	0.011444	-0.046692	-0.011597	0.23041	0.06012	-0.26611	0.12283	0.34225	-0.004883	-0.011902	-0.000916	0.10483	0.22186	0.009613	-0.010223
29.109	0.011292	-0.072174	0.019836	0.003052	-0.093079	-0.050812	-0.089569	-0.013275	0.14999	-0.008392	-0.11276	-0.00412	0.048523	-0.20309	0.073395	0.000763	0.01236	0.022583	-0.11856	-0.003815	0.24582	0.024719	-0.36926	0.1857	0.5014	-0.00885	0.060425	-0.001984	-0.027161	0.30731	0.006866	-0.012054
29.11	-0.000153	-0.090942	-0.039673	0.006866	-0.011902	-0.14465	-0.007629	-0.006866	0.084534	0.014648	-0.031281	-0.007172	0.024719	-0.19333	0.10941	-0.00885	0.031128	0.006866	-0.070953	-0.047607	0.12054	0.029297	-0.25818	0.23697	0.46585	-0.006104	0.003204	-0.003815	-0.064545	0.20676	0.005798	-0.014496
29.111	0.002289	-0.059967	-0.033875	0.00351	0.015411	-0.06546	0.025482	-0.00412	0.043945	0.014496	0.003204	-0.007172	0.072937	-0.13306	0.10346	0.001831	0.030365	0.014191	-0.021667	-0.08667	0.066528	-0.012817	-0.068054	0.22049	0.33676	-0.003052	-0.013733	-0.001678	-0.05722	0.14404	0.012512	-0.007477
29.112	-0.01297	-0.071411	-0.014191	-0.003815	-0.1001	0.020905	0.008087	-0.003815	0.026855	-0.006714	0.011902	-0.01297	0.041046	-0.14282	0.1442	0.003204	0.020447	0.033112	0.080109	-0.066986	0.11551	0.034332	-0.081024	0.041656	0.22186	-0.009766	0.11383	-0.007782	-0.095215	0.12543	0.01236	-0.00946
29.113	-0.008545	-0.039978	0.019836	-0.003815	-0.046844	-0.003815	-0.009003	0.005341	0.056458	0.042114	-0.006256	-0.010223	-0.046082	0.000916	-0.007935	0.001526	0.010834	0.005188	0.072174	-0.01297	0.15625	0.059662	-0.18463	0.039063	0.22156	-0.002441	0.15533	-0.003967	-0.079193	0.10208	0.012665	-0.005188
29.114	0.007324	0.015259	-0.002289	-0.010681	-0.040283	0.042572	-0.016632	0.003052	0.024414	0.009308	-0.058899	-0.004425	-0.1268	-0.002899	-0.069885	-0.00412	0.011139	0.005646	-0.016632	0.032043	0.21576	0.088654	-0.16235	-0.006866	0.26825	-0.011597	0.14908	-0.003357	-0.034027	0.10407	0.00473	-0.013428
29.115	-0.002136	-0.022736	-0.052032	0.005951	-0.009003	0.033875	-0.006561	0.006866	-0.002747	-0.033569	-0.013428	-0.002899	-0.074768	0.020142	-0.079803	-0.003357	-0.004578	0.013733	0.029602	0.024872	0.24323	0.096741	-0.043945	-0.000305	0.23865	-0.009766	0.18188	-0.005798	-0.055237	0.12329	0.016479	-0.014191
29.116	-0.014343	-0.016327	-0.099792	0.012512	0.078125	-0.11276	-0.010681	0.017853	-0.021973	-0.058441	0.023651	-0.005035	0.010376	0.06424	-0.031433	0.00351	-0.011749	-0.000916	0.019073	0.036163	0.12146	0.13138	0.049438	0.10071	0.25177	-0.009766	0.20172	-0.003204	-0.06073	0.0737	0.013428	-0.014038
29.117	0.009613	-0.005188	-0.11093	0.012207	0.088043	-0.21866	0.0177	0.003815	-0.014648	-0.13351	0.016632	0.000763	0.014191	0.026398	-0.03006	0.010529	0.001068	-0.017242	0.034485	-0.024872	0.13489	0.11017	0.20645	0.064087	0.27283	-0.002899	0.12726	-0.000916	-0.018158	0.070038	0.012817	-0.015869
29.118	0.017548	0.007935	-0.11169	0.019073	0.078735	-0.074615	-0.014954	0.03418	-0.010986	-0.20065	0.010071	0.002594	-0.077972	0.064697	0.008392	0.01358	0.012512	-0.042877	0.046692	-0.04715	0.15198	0.11566	0.38315	-0.025787	0.18005	-0.006256	0.159	0.000916	-0.039368	0.042725	0.012512	-0.012207
29.119	0.008392	0.021057	-0.11414	0.015869	0.067902	0.15808	-0.030212	-0.007172	0.006409	-0.12344	0.011749	-0.008087	-0.079193	0.019073	0.048523	0.011749	-0.004425	-0.041046	0.023651	-0.042877	0.15808	0.10849	0.38696	0.495	-0.005341	0.006561	0.13886	-0.000458	-0.061188	0.022888	0.011444	-0.007477
29.12	-0.003204	-0.016022	-0.17014	0.009308	0.05661	0.17624	-0.002899	0.006866	-0.009155	-0.1004	0.014496	-0.005951	-0.11581	-0.049896	0.044861	0.00473	-0.03479	-0.079193	-0.001373	-0.044708	0.19012	0.10895	0.34286	0.69443	-0.33279	-0.000305	-0.046082	-0.000763	-0.046844	0.014343	0.013885	-0.008087
29.121	-0.016327	0.007782	-0.14008	-0.004883	-0.061951	0.25391	0.013275	0.007477	-0.021057	-0.046082	0.002441	-0.00946	-0.10254	-0.028229	0.023499	-0.037689	-0.039215	-0.016022	0.006104	-0.056152	0.18051	0.008545	0.20844	0.52338	-0.63522	-0.003662	-0.089417	0.001831	-0.070496	-0.015564	0.013733	-0.009003
29.122	-0.009308	0.005188	-0.18616	0.001678	-0.090332	0.23041	-0.00412	0.005188	-0.018768	0.096893	0.005951	-0.016327	-0.010986	-0.006104	0.009308	-0.016327	-0.022583	-0.038757	0.004578	-0.021057	0.14694	-0.062714	-0.11383	0.26749	-0.21393	-0.007629	-0.099487	-0.002594	-0.10361	-0.021362	0.024109	-0.011444
29.123	0.049896	-0.000305	-0.2681	0.01297	-0.060883	0.065613	-0.022888	0.011597	-0.029144	0.12207	0.006714	-0.009613	0.030975	0.024872	-0.000305	-0.006866	-0.037384	-0.050659	0.008545	0.022278	0.14801	-0.056152	-0.58838	-0.037231	0.31464	-0.011749	-0.19592	-0.003204	-0.094452	-0.020447	0.014496	-0.013885
29.124	0.010529	-0.027161	-0.33768	-0.00824	0.029297	-0.21896	-0.036163	0.003357	-0.015564	0.046234	0.012207	-0.004425	0.054169	0.011749	-0.004578	0.003967	-0.032196	-0.024719	-0.005188	0.025177	0.14633	-0.046997	-0.81207	-0.16052	0.30579	-0.008392	-0.13794	-0.001984	-0.064545	-0.023193	0.015717	-0.013123
29.125	0.034027	0.00473	-0.3688	-0.006561	0.074768	-0.18997	-0.060577	0.006104	-0.017853	0.048523	0.014038	-0.004883	0.08606	-0.030365	-0.013123	-0.018616	-0.018921	0.014801	0.003052	0.041962	0.16739	-0.009155	-0.94055	-0.13977	0.10956	-0.002899	0.20538	0.00351	-0.017853	-0.027008	0.016022	-0.00351
29.126	0.021057	-0.020294	-0.37827	0.005493	0.056458	-0.036926	-0.058594	0.002441	-0.031738	0.1149	0.027466	0.003204	0.027466	-0.0737	-0.010834	-0.85663	0.007935	-0.017548	-0.055084	0.010529	0.17029	-0.006866	-0.65689	-0.20645	0.011292	-0.008698	0.25559	-0.001984	-0.043182	0.00824	0.01709	-0.008698
29.127	0.002594	0.005493	-0.36362	0.009766	-0.008545	0.16022	-0.047455	0.00885	-0.058594	0.028229	0.028992	0.005188	-0.032654	-0.10178	-0.019531	0.63004	0.047607	0.016937	-0.092621	0.01358	0.13229	-0.023956	-0.29724	-0.19608	0.023956	-0.009613	0.15396	0.002289	-0.072174	-0.020599	0.013428	-0.000153
